# xmcd
#
# Track frame offsets: 
#        150
#        15150
#        28575
#        43631
#        58639
#        73212
#        89666
#        107797
#        126078
#        141528
#        153566
#        165518
#        179994
#        186472
#
# Disc length: 2663 seconds
#
# Revision: 0
# Processed by: cddbd v1.5.2PL0 Copyright (c) Steve Scherf et al.
# Submitted via: ExactAudioCopy v0.95b4
#
DISCID=cf0a650e
DTITLE=Kontor Tamás - Rengeteg év
DYEAR=2006
DGENRE=Country
TTITLE0=Ma valakinek hinnie kell
TTITLE1=Rengeteg év
TTITLE2=Szemen szedett igazság
TTITLE3=Hangjegy
TTITLE4=Sohase bánd!
TTITLE5=Új dal
TTITLE6=Telefonblûz
TTITLE7=Country Budapest
TTITLE8=Vár még talán
TTITLE9=Reggelig tartó éjszakák
TTITLE10=Tanya...
TTITLE11=Láttam végre a lányt
TTITLE12=Metálkösz
TTITLE13=Beautiful day
EXTD=
EXTT0=
EXTT1=
EXTT2=
EXTT3=
EXTT4=
EXTT5=
EXTT6=
EXTT7=
EXTT8=
EXTT9=
EXTT10=
EXTT11=
EXTT12=
EXTT13=
PLAYORDER=
